<svg width="45" height="33" viewBox="0 0 45 33" fill="none" xmlns="http://www.w3.org/2000/svg">
<path d="M1 32C1.67431 26.3241 4.52569 14.9724 10.5367 14.9724C12.4626 14.9724 14.1333 16.1377 15.5243 17.9082L16.6055 19.0825" stroke="black" stroke-width="2"/>
<path d="M12.5596 32C13.2339 26.3241 16.0853 14.9724 22.0963 14.9724C28.1073 14.9724 31.633 26.3241 31.922 32" stroke="black" stroke-width="2"/>
<path d="M43.0897 32C42.8008 26.3241 39.2751 14.9724 33.2641 14.9724C31.0344 14.9724 29.2395 16.5342 27.8292 18.7889" stroke="black" stroke-width="2"/>
<path d="M26.5872 5.87157C26.5872 8.57696 24.4324 10.7431 21.8073 10.7431C19.1823 10.7431 17.0275 8.57696 17.0275 5.87157C17.0275 3.16617 19.1823 1 21.8073 1C24.4324 1 26.5872 3.16617 26.5872 5.87157Z" stroke="black" stroke-width="2"/>
<path d="M38.2468 6.45873C38.2468 8.89358 36.3075 10.8431 33.945 10.8431C31.5824 10.8431 29.6431 8.89358 29.6431 6.45873C29.6431 4.02387 31.5824 2.07432 33.945 2.07432C36.3075 2.07432 38.2468 4.02387 38.2468 6.45873Z" stroke="black" stroke-width="1.8"/>
<path d="M13.9716 6.45873C13.9716 8.89358 12.0322 10.8431 9.66972 10.8431C7.3072 10.8431 5.36789 8.89358 5.36789 6.45873C5.36789 4.02387 7.3072 2.07432 9.66972 2.07432C12.0322 2.07432 13.9716 4.02387 13.9716 6.45873Z" stroke="black" stroke-width="1.8"/>
</svg>
